<mxfile host="app.diagrams.net" agent="Mozilla/5.0 (Windows NT 10.0; Win64; x64) AppleWebKit/537.36 (KHTML, like Gecko) Chrome/132.0.0.0 Safari/537.36 OPR/117.0.0.0" version="26.2.9">
  <diagram name="1 oldal" id="ELjD8MmCFwN_oeMSDfuy">
    <mxGraphModel grid="1" page="1" gridSize="10" guides="1" tooltips="1" connect="1" arrows="1" fold="1" pageScale="1" pageWidth="827" pageHeight="1169" math="0" shadow="0">
      <root>
        <mxCell id="0" />
        <mxCell id="1" parent="0" />
        <mxCell id="0LEx8coa6d5uUNperBAj-37" value="" style="ellipse;whiteSpace=wrap;html=1;" vertex="1" parent="1">
          <mxGeometry x="74" y="235" width="110" height="60" as="geometry" />
        </mxCell>
        <mxCell id="CgMMiQ2hONGqeUQDv3Pb-1" value="" style="rounded=0;whiteSpace=wrap;html=1;" vertex="1" parent="1">
          <mxGeometry x="164" y="320" width="120" height="60" as="geometry" />
        </mxCell>
        <mxCell id="CgMMiQ2hONGqeUQDv3Pb-2" value="" style="rounded=0;whiteSpace=wrap;html=1;" vertex="1" parent="1">
          <mxGeometry x="564" y="320" width="120" height="60" as="geometry" />
        </mxCell>
        <mxCell id="CgMMiQ2hONGqeUQDv3Pb-4" value="" style="edgeStyle=orthogonalEdgeStyle;rounded=0;orthogonalLoop=1;jettySize=auto;html=1;" edge="1" parent="1" source="CgMMiQ2hONGqeUQDv3Pb-3" target="CgMMiQ2hONGqeUQDv3Pb-2">
          <mxGeometry relative="1" as="geometry" />
        </mxCell>
        <mxCell id="CgMMiQ2hONGqeUQDv3Pb-5" value="" style="edgeStyle=orthogonalEdgeStyle;rounded=0;orthogonalLoop=1;jettySize=auto;html=1;" edge="1" parent="1" source="CgMMiQ2hONGqeUQDv3Pb-3" target="CgMMiQ2hONGqeUQDv3Pb-1">
          <mxGeometry relative="1" as="geometry" />
        </mxCell>
        <mxCell id="CgMMiQ2hONGqeUQDv3Pb-3" value="" style="rhombus;whiteSpace=wrap;html=1;" vertex="1" parent="1">
          <mxGeometry x="384" y="310" width="80" height="80" as="geometry" />
        </mxCell>
        <mxCell id="CgMMiQ2hONGqeUQDv3Pb-6" value="" style="ellipse;whiteSpace=wrap;html=1;" vertex="1" parent="1">
          <mxGeometry x="84" y="410" width="90" height="40" as="geometry" />
        </mxCell>
        <mxCell id="CgMMiQ2hONGqeUQDv3Pb-7" value="" style="ellipse;whiteSpace=wrap;html=1;" vertex="1" parent="1">
          <mxGeometry x="179" y="410" width="90" height="40" as="geometry" />
        </mxCell>
        <mxCell id="CgMMiQ2hONGqeUQDv3Pb-8" value="" style="ellipse;whiteSpace=wrap;html=1;" vertex="1" parent="1">
          <mxGeometry x="274" y="410" width="90" height="40" as="geometry" />
        </mxCell>
        <mxCell id="CgMMiQ2hONGqeUQDv3Pb-10" value="" style="endArrow=none;html=1;rounded=0;" edge="1" parent="1" target="CgMMiQ2hONGqeUQDv3Pb-6">
          <mxGeometry width="50" height="50" relative="1" as="geometry">
            <mxPoint x="174" y="430" as="sourcePoint" />
            <mxPoint x="224" y="380" as="targetPoint" />
          </mxGeometry>
        </mxCell>
        <mxCell id="CgMMiQ2hONGqeUQDv3Pb-12" value="T-GY" style="text;html=1;align=center;verticalAlign=middle;whiteSpace=wrap;rounded=0;" vertex="1" parent="1">
          <mxGeometry x="394" y="335" width="60" height="30" as="geometry" />
        </mxCell>
        <mxCell id="CgMMiQ2hONGqeUQDv3Pb-13" value="&lt;b&gt;&lt;font style=&quot;font-size: 13px;&quot;&gt;Termék&lt;/font&gt;&lt;/b&gt;" style="text;html=1;align=center;verticalAlign=middle;whiteSpace=wrap;rounded=0;" vertex="1" parent="1">
          <mxGeometry x="194" y="335" width="60" height="30" as="geometry" />
        </mxCell>
        <mxCell id="CgMMiQ2hONGqeUQDv3Pb-14" value="&lt;b&gt;&lt;font style=&quot;font-size: 13px;&quot;&gt;Gyártó&lt;/font&gt;&lt;/b&gt;" style="text;html=1;align=center;verticalAlign=middle;whiteSpace=wrap;rounded=0;" vertex="1" parent="1">
          <mxGeometry x="594" y="335" width="60" height="30" as="geometry" />
        </mxCell>
        <mxCell id="CgMMiQ2hONGqeUQDv3Pb-15" value="&lt;u&gt;Tkód&lt;/u&gt;" style="text;html=1;align=center;verticalAlign=middle;whiteSpace=wrap;rounded=0;" vertex="1" parent="1">
          <mxGeometry x="99" y="415" width="60" height="30" as="geometry" />
        </mxCell>
        <mxCell id="CgMMiQ2hONGqeUQDv3Pb-16" value="Név" style="text;html=1;align=center;verticalAlign=middle;whiteSpace=wrap;rounded=0;" vertex="1" parent="1">
          <mxGeometry x="194" y="415" width="60" height="30" as="geometry" />
        </mxCell>
        <mxCell id="CgMMiQ2hONGqeUQDv3Pb-17" value="Ear" style="text;html=1;align=center;verticalAlign=middle;whiteSpace=wrap;rounded=0;" vertex="1" parent="1">
          <mxGeometry x="289" y="415" width="60" height="30" as="geometry" />
        </mxCell>
        <mxCell id="0LEx8coa6d5uUNperBAj-1" value="" style="ellipse;whiteSpace=wrap;html=1;" vertex="1" parent="1">
          <mxGeometry x="672" y="411" width="90" height="40" as="geometry" />
        </mxCell>
        <mxCell id="0LEx8coa6d5uUNperBAj-2" value="" style="ellipse;whiteSpace=wrap;html=1;" vertex="1" parent="1">
          <mxGeometry x="770" y="411" width="90" height="40" as="geometry" />
        </mxCell>
        <mxCell id="0LEx8coa6d5uUNperBAj-3" value="" style="ellipse;whiteSpace=wrap;html=1;" vertex="1" parent="1">
          <mxGeometry x="484" y="410" width="90" height="40" as="geometry" />
        </mxCell>
        <mxCell id="0LEx8coa6d5uUNperBAj-4" value="&lt;u&gt;adószám&lt;/u&gt;" style="text;html=1;align=center;verticalAlign=middle;whiteSpace=wrap;rounded=0;" vertex="1" parent="1">
          <mxGeometry x="499" y="415" width="60" height="30" as="geometry" />
        </mxCell>
        <mxCell id="0LEx8coa6d5uUNperBAj-5" value="név" style="text;html=1;align=center;verticalAlign=middle;whiteSpace=wrap;rounded=0;" vertex="1" parent="1">
          <mxGeometry x="687" y="416" width="60" height="30" as="geometry" />
        </mxCell>
        <mxCell id="0LEx8coa6d5uUNperBAj-6" value="telephely" style="text;html=1;align=center;verticalAlign=middle;whiteSpace=wrap;rounded=0;" vertex="1" parent="1">
          <mxGeometry x="787" y="416" width="60" height="30" as="geometry" />
        </mxCell>
        <mxCell id="0LEx8coa6d5uUNperBAj-9" value="" style="endArrow=none;html=1;rounded=0;exitX=1;exitY=0;exitDx=0;exitDy=0;" edge="1" parent="1" source="CgMMiQ2hONGqeUQDv3Pb-15">
          <mxGeometry relative="1" as="geometry">
            <mxPoint x="158" y="410" as="sourcePoint" />
            <mxPoint x="223" y="380" as="targetPoint" />
          </mxGeometry>
        </mxCell>
        <mxCell id="0LEx8coa6d5uUNperBAj-10" value="" style="endArrow=none;html=1;rounded=0;exitX=0.5;exitY=1;exitDx=0;exitDy=0;entryX=0.333;entryY=0;entryDx=0;entryDy=0;entryPerimeter=0;" edge="1" parent="1" source="CgMMiQ2hONGqeUQDv3Pb-1" target="CgMMiQ2hONGqeUQDv3Pb-8">
          <mxGeometry relative="1" as="geometry">
            <mxPoint x="224" y="400" as="sourcePoint" />
            <mxPoint x="314" y="400" as="targetPoint" />
          </mxGeometry>
        </mxCell>
        <mxCell id="0LEx8coa6d5uUNperBAj-11" value="" style="endArrow=none;html=1;rounded=0;exitX=0.5;exitY=1;exitDx=0;exitDy=0;entryX=0.5;entryY=0;entryDx=0;entryDy=0;" edge="1" parent="1" source="CgMMiQ2hONGqeUQDv3Pb-1" target="CgMMiQ2hONGqeUQDv3Pb-7">
          <mxGeometry relative="1" as="geometry">
            <mxPoint x="314" y="440" as="sourcePoint" />
            <mxPoint x="474" y="440" as="targetPoint" />
          </mxGeometry>
        </mxCell>
        <mxCell id="0LEx8coa6d5uUNperBAj-12" value="" style="endArrow=none;html=1;rounded=0;entryX=0.5;entryY=1;entryDx=0;entryDy=0;exitX=0.5;exitY=0;exitDx=0;exitDy=0;" edge="1" parent="1" source="0LEx8coa6d5uUNperBAj-3" target="CgMMiQ2hONGqeUQDv3Pb-2">
          <mxGeometry relative="1" as="geometry">
            <mxPoint x="314" y="440" as="sourcePoint" />
            <mxPoint x="474" y="440" as="targetPoint" />
          </mxGeometry>
        </mxCell>
        <mxCell id="0LEx8coa6d5uUNperBAj-15" value="" style="ellipse;whiteSpace=wrap;html=1;" vertex="1" parent="1">
          <mxGeometry x="578" y="410" width="90" height="40" as="geometry" />
        </mxCell>
        <mxCell id="0LEx8coa6d5uUNperBAj-16" value="" style="ellipse;whiteSpace=wrap;html=1;" vertex="1" parent="1">
          <mxGeometry x="579" y="490" width="90" height="40" as="geometry" />
        </mxCell>
        <mxCell id="0LEx8coa6d5uUNperBAj-17" value="" style="ellipse;whiteSpace=wrap;html=1;" vertex="1" parent="1">
          <mxGeometry x="484" y="490" width="90" height="40" as="geometry" />
        </mxCell>
        <mxCell id="0LEx8coa6d5uUNperBAj-18" value="" style="endArrow=none;html=1;rounded=0;entryX=0.5;entryY=1;entryDx=0;entryDy=0;exitX=0.5;exitY=0;exitDx=0;exitDy=0;" edge="1" parent="1" source="0LEx8coa6d5uUNperBAj-15" target="CgMMiQ2hONGqeUQDv3Pb-2">
          <mxGeometry width="50" height="50" relative="1" as="geometry">
            <mxPoint x="374" y="460" as="sourcePoint" />
            <mxPoint x="424" y="410" as="targetPoint" />
          </mxGeometry>
        </mxCell>
        <mxCell id="0LEx8coa6d5uUNperBAj-19" value="Postacím" style="text;html=1;align=center;verticalAlign=middle;whiteSpace=wrap;rounded=0;" vertex="1" parent="1">
          <mxGeometry x="594" y="415" width="60" height="30" as="geometry" />
        </mxCell>
        <mxCell id="0LEx8coa6d5uUNperBAj-20" value="" style="endArrow=classic;html=1;rounded=0;exitX=0;exitY=0.5;exitDx=0;exitDy=0;" edge="1" parent="1" source="CgMMiQ2hONGqeUQDv3Pb-3">
          <mxGeometry width="50" height="50" relative="1" as="geometry">
            <mxPoint x="374" y="460" as="sourcePoint" />
            <mxPoint x="294" y="350" as="targetPoint" />
          </mxGeometry>
        </mxCell>
        <mxCell id="0LEx8coa6d5uUNperBAj-21" value="" style="ellipse;whiteSpace=wrap;html=1;" vertex="1" parent="1">
          <mxGeometry x="672" y="490" width="90" height="40" as="geometry" />
        </mxCell>
        <mxCell id="0LEx8coa6d5uUNperBAj-22" value="" style="endArrow=none;html=1;rounded=0;entryX=0.5;entryY=1;entryDx=0;entryDy=0;exitX=0.5;exitY=0;exitDx=0;exitDy=0;" edge="1" parent="1" source="0LEx8coa6d5uUNperBAj-17" target="0LEx8coa6d5uUNperBAj-15">
          <mxGeometry width="50" height="50" relative="1" as="geometry">
            <mxPoint x="374" y="460" as="sourcePoint" />
            <mxPoint x="424" y="410" as="targetPoint" />
          </mxGeometry>
        </mxCell>
        <mxCell id="0LEx8coa6d5uUNperBAj-23" value="" style="endArrow=none;html=1;rounded=0;exitX=0.5;exitY=0;exitDx=0;exitDy=0;" edge="1" parent="1" source="0LEx8coa6d5uUNperBAj-16">
          <mxGeometry width="50" height="50" relative="1" as="geometry">
            <mxPoint x="539" y="500" as="sourcePoint" />
            <mxPoint x="624" y="450" as="targetPoint" />
          </mxGeometry>
        </mxCell>
        <mxCell id="0LEx8coa6d5uUNperBAj-24" value="" style="endArrow=none;html=1;rounded=0;exitX=0.5;exitY=0;exitDx=0;exitDy=0;" edge="1" parent="1" source="0LEx8coa6d5uUNperBAj-21">
          <mxGeometry width="50" height="50" relative="1" as="geometry">
            <mxPoint x="549" y="510" as="sourcePoint" />
            <mxPoint x="624" y="450" as="targetPoint" />
          </mxGeometry>
        </mxCell>
        <mxCell id="0LEx8coa6d5uUNperBAj-25" value="" style="endArrow=none;html=1;rounded=0;entryX=0.5;entryY=1;entryDx=0;entryDy=0;exitX=0.5;exitY=0;exitDx=0;exitDy=0;" edge="1" parent="1" source="0LEx8coa6d5uUNperBAj-1" target="CgMMiQ2hONGqeUQDv3Pb-2">
          <mxGeometry width="50" height="50" relative="1" as="geometry">
            <mxPoint x="559" y="520" as="sourcePoint" />
            <mxPoint x="653" y="480" as="targetPoint" />
          </mxGeometry>
        </mxCell>
        <mxCell id="0LEx8coa6d5uUNperBAj-26" value="hazszam" style="text;html=1;align=center;verticalAlign=middle;whiteSpace=wrap;rounded=0;" vertex="1" parent="1">
          <mxGeometry x="687" y="495" width="60" height="30" as="geometry" />
        </mxCell>
        <mxCell id="0LEx8coa6d5uUNperBAj-27" value="Város" style="text;html=1;align=center;verticalAlign=middle;whiteSpace=wrap;rounded=0;" vertex="1" parent="1">
          <mxGeometry x="594" y="495" width="60" height="30" as="geometry" />
        </mxCell>
        <mxCell id="0LEx8coa6d5uUNperBAj-28" value="Irszám" style="text;html=1;align=center;verticalAlign=middle;whiteSpace=wrap;rounded=0;" vertex="1" parent="1">
          <mxGeometry x="499" y="495" width="60" height="30" as="geometry" />
        </mxCell>
        <mxCell id="0LEx8coa6d5uUNperBAj-30" value="" style="rhombus;whiteSpace=wrap;html=1;" vertex="1" parent="1">
          <mxGeometry x="184" y="180" width="80" height="80" as="geometry" />
        </mxCell>
        <mxCell id="0LEx8coa6d5uUNperBAj-31" value="T_A" style="text;html=1;align=center;verticalAlign=middle;whiteSpace=wrap;rounded=0;" vertex="1" parent="1">
          <mxGeometry x="194" y="205" width="60" height="30" as="geometry" />
        </mxCell>
        <mxCell id="0LEx8coa6d5uUNperBAj-32" value="" style="endArrow=classic;html=1;rounded=0;exitX=0.5;exitY=1;exitDx=0;exitDy=0;entryX=0.5;entryY=0;entryDx=0;entryDy=0;" edge="1" parent="1" source="0LEx8coa6d5uUNperBAj-30" target="CgMMiQ2hONGqeUQDv3Pb-1">
          <mxGeometry width="50" height="50" relative="1" as="geometry">
            <mxPoint x="374" y="410" as="sourcePoint" />
            <mxPoint x="424" y="360" as="targetPoint" />
          </mxGeometry>
        </mxCell>
        <mxCell id="0LEx8coa6d5uUNperBAj-33" value="" style="endArrow=classic;html=1;rounded=0;exitX=0.5;exitY=1;exitDx=0;exitDy=0;" edge="1" parent="1" source="0LEx8coa6d5uUNperBAj-30">
          <mxGeometry width="50" height="50" relative="1" as="geometry">
            <mxPoint x="374" y="410" as="sourcePoint" />
            <mxPoint x="224" y="310" as="targetPoint" />
          </mxGeometry>
        </mxCell>
        <mxCell id="0LEx8coa6d5uUNperBAj-35" value="" style="ellipse;whiteSpace=wrap;html=1;" vertex="1" parent="1">
          <mxGeometry x="84" y="245" width="90" height="40" as="geometry" />
        </mxCell>
        <mxCell id="0LEx8coa6d5uUNperBAj-36" value="" style="endArrow=none;html=1;rounded=0;exitX=0.5;exitY=1;exitDx=0;exitDy=0;entryX=0.25;entryY=0;entryDx=0;entryDy=0;" edge="1" parent="1" source="0LEx8coa6d5uUNperBAj-37" target="CgMMiQ2hONGqeUQDv3Pb-1">
          <mxGeometry width="50" height="50" relative="1" as="geometry">
            <mxPoint x="374" y="410" as="sourcePoint" />
            <mxPoint x="182" y="324" as="targetPoint" />
          </mxGeometry>
        </mxCell>
        <mxCell id="0LEx8coa6d5uUNperBAj-39" value="Egység_db" style="text;html=1;align=center;verticalAlign=middle;whiteSpace=wrap;rounded=0;" vertex="1" parent="1">
          <mxGeometry x="99" y="250" width="60" height="30" as="geometry" />
        </mxCell>
        <mxCell id="0LEx8coa6d5uUNperBAj-40" value="" style="rounded=0;whiteSpace=wrap;html=1;" vertex="1" parent="1">
          <mxGeometry x="164" y="70" width="120" height="60" as="geometry" />
        </mxCell>
        <mxCell id="0LEx8coa6d5uUNperBAj-41" value="" style="endArrow=classic;html=1;rounded=0;exitX=0.5;exitY=0;exitDx=0;exitDy=0;entryX=0.5;entryY=1;entryDx=0;entryDy=0;" edge="1" parent="1" source="0LEx8coa6d5uUNperBAj-30" target="0LEx8coa6d5uUNperBAj-40">
          <mxGeometry width="50" height="50" relative="1" as="geometry">
            <mxPoint x="410" y="270" as="sourcePoint" />
            <mxPoint x="460" y="220" as="targetPoint" />
          </mxGeometry>
        </mxCell>
        <mxCell id="0LEx8coa6d5uUNperBAj-42" value="" style="endArrow=classic;html=1;rounded=0;exitX=0.5;exitY=0;exitDx=0;exitDy=0;" edge="1" parent="1" source="0LEx8coa6d5uUNperBAj-30">
          <mxGeometry width="50" height="50" relative="1" as="geometry">
            <mxPoint x="217" y="180" as="sourcePoint" />
            <mxPoint x="224" y="140" as="targetPoint" />
          </mxGeometry>
        </mxCell>
        <mxCell id="0LEx8coa6d5uUNperBAj-43" value="" style="ellipse;whiteSpace=wrap;html=1;" vertex="1" parent="1">
          <mxGeometry x="40" y="80" width="90" height="40" as="geometry" />
        </mxCell>
        <mxCell id="0LEx8coa6d5uUNperBAj-44" value="" style="ellipse;whiteSpace=wrap;html=1;" vertex="1" parent="1">
          <mxGeometry x="310" y="80" width="90" height="40" as="geometry" />
        </mxCell>
        <mxCell id="0LEx8coa6d5uUNperBAj-46" value="" style="endArrow=none;html=1;rounded=0;exitX=1;exitY=0.5;exitDx=0;exitDy=0;entryX=0;entryY=0.5;entryDx=0;entryDy=0;" edge="1" parent="1" source="0LEx8coa6d5uUNperBAj-40" target="0LEx8coa6d5uUNperBAj-44">
          <mxGeometry width="50" height="50" relative="1" as="geometry">
            <mxPoint x="410" y="210" as="sourcePoint" />
            <mxPoint x="460" y="160" as="targetPoint" />
          </mxGeometry>
        </mxCell>
        <mxCell id="0LEx8coa6d5uUNperBAj-47" value="" style="endArrow=none;html=1;rounded=0;exitX=1;exitY=0.5;exitDx=0;exitDy=0;entryX=0;entryY=0.5;entryDx=0;entryDy=0;" edge="1" parent="1" source="0LEx8coa6d5uUNperBAj-43" target="0LEx8coa6d5uUNperBAj-40">
          <mxGeometry width="50" height="50" relative="1" as="geometry">
            <mxPoint x="294" y="110" as="sourcePoint" />
            <mxPoint x="160" y="100" as="targetPoint" />
          </mxGeometry>
        </mxCell>
        <mxCell id="0LEx8coa6d5uUNperBAj-48" value="&lt;b&gt;&lt;font style=&quot;font-size: 13px;&quot;&gt;Alkatrész&lt;/font&gt;&lt;/b&gt;" style="text;html=1;align=center;verticalAlign=middle;whiteSpace=wrap;rounded=0;" vertex="1" parent="1">
          <mxGeometry x="194" y="85" width="60" height="30" as="geometry" />
        </mxCell>
        <mxCell id="0LEx8coa6d5uUNperBAj-49" value="nev" style="text;html=1;align=center;verticalAlign=middle;whiteSpace=wrap;rounded=0;" vertex="1" parent="1">
          <mxGeometry x="325" y="85" width="60" height="30" as="geometry" />
        </mxCell>
        <mxCell id="0LEx8coa6d5uUNperBAj-50" value="&lt;u&gt;akod&lt;/u&gt;" style="text;html=1;align=center;verticalAlign=middle;whiteSpace=wrap;rounded=0;" vertex="1" parent="1">
          <mxGeometry x="55" y="85" width="60" height="30" as="geometry" />
        </mxCell>
        <mxCell id="0LEx8coa6d5uUNperBAj-52" value="" style="rhombus;whiteSpace=wrap;html=1;" vertex="1" parent="1">
          <mxGeometry x="19" y="310" width="80" height="80" as="geometry" />
        </mxCell>
        <mxCell id="0LEx8coa6d5uUNperBAj-53" value="" style="rounded=0;whiteSpace=wrap;html=1;" vertex="1" parent="1">
          <mxGeometry x="-150" y="320" width="120" height="60" as="geometry" />
        </mxCell>
        <mxCell id="0LEx8coa6d5uUNperBAj-54" value="" style="rounded=0;whiteSpace=wrap;html=1;" vertex="1" parent="1">
          <mxGeometry x="-150" y="70" width="120" height="60" as="geometry" />
        </mxCell>
        <mxCell id="0LEx8coa6d5uUNperBAj-55" value="" style="rhombus;whiteSpace=wrap;html=1;" vertex="1" parent="1">
          <mxGeometry x="-130" y="180" width="80" height="80" as="geometry" />
        </mxCell>
        <mxCell id="0LEx8coa6d5uUNperBAj-56" value="" style="endArrow=classic;html=1;rounded=0;exitX=0.5;exitY=1;exitDx=0;exitDy=0;entryX=0.5;entryY=0;entryDx=0;entryDy=0;" edge="1" parent="1" source="0LEx8coa6d5uUNperBAj-55" target="0LEx8coa6d5uUNperBAj-53">
          <mxGeometry width="50" height="50" relative="1" as="geometry">
            <mxPoint x="370" y="340" as="sourcePoint" />
            <mxPoint x="420" y="290" as="targetPoint" />
          </mxGeometry>
        </mxCell>
        <mxCell id="0LEx8coa6d5uUNperBAj-57" value="" style="endArrow=classic;html=1;rounded=0;exitX=0.5;exitY=1;exitDx=0;exitDy=0;" edge="1" parent="1" source="0LEx8coa6d5uUNperBAj-55">
          <mxGeometry width="50" height="50" relative="1" as="geometry">
            <mxPoint x="-80" y="270" as="sourcePoint" />
            <mxPoint x="-90" y="310" as="targetPoint" />
          </mxGeometry>
        </mxCell>
        <mxCell id="0LEx8coa6d5uUNperBAj-58" value="" style="endArrow=classic;html=1;rounded=0;exitX=0.5;exitY=0;exitDx=0;exitDy=0;entryX=0.5;entryY=1;entryDx=0;entryDy=0;" edge="1" parent="1" source="0LEx8coa6d5uUNperBAj-55" target="0LEx8coa6d5uUNperBAj-54">
          <mxGeometry width="50" height="50" relative="1" as="geometry">
            <mxPoint x="-70" y="280" as="sourcePoint" />
            <mxPoint x="-70" y="340" as="targetPoint" />
          </mxGeometry>
        </mxCell>
        <mxCell id="0LEx8coa6d5uUNperBAj-59" value="" style="endArrow=classic;html=1;rounded=0;exitX=0;exitY=0.5;exitDx=0;exitDy=0;entryX=1;entryY=0.5;entryDx=0;entryDy=0;" edge="1" parent="1" source="0LEx8coa6d5uUNperBAj-52" target="0LEx8coa6d5uUNperBAj-53">
          <mxGeometry width="50" height="50" relative="1" as="geometry">
            <mxPoint x="-60" y="290" as="sourcePoint" />
            <mxPoint x="-60" y="350" as="targetPoint" />
          </mxGeometry>
        </mxCell>
        <mxCell id="0LEx8coa6d5uUNperBAj-60" value="" style="endArrow=classic;html=1;rounded=0;exitX=0;exitY=0.5;exitDx=0;exitDy=0;" edge="1" parent="1" source="0LEx8coa6d5uUNperBAj-52">
          <mxGeometry width="50" height="50" relative="1" as="geometry">
            <mxPoint x="-50" y="300" as="sourcePoint" />
            <mxPoint x="-20" y="350" as="targetPoint" />
          </mxGeometry>
        </mxCell>
        <mxCell id="0LEx8coa6d5uUNperBAj-61" value="" style="endArrow=classic;html=1;rounded=0;exitX=1;exitY=0.5;exitDx=0;exitDy=0;" edge="1" parent="1" source="0LEx8coa6d5uUNperBAj-52">
          <mxGeometry width="50" height="50" relative="1" as="geometry">
            <mxPoint x="-40" y="310" as="sourcePoint" />
            <mxPoint x="150" y="350" as="targetPoint" />
          </mxGeometry>
        </mxCell>
        <mxCell id="0LEx8coa6d5uUNperBAj-62" value="" style="endArrow=classic;html=1;rounded=0;exitX=1;exitY=0.5;exitDx=0;exitDy=0;entryX=0;entryY=0.5;entryDx=0;entryDy=0;" edge="1" parent="1" source="0LEx8coa6d5uUNperBAj-52" target="CgMMiQ2hONGqeUQDv3Pb-1">
          <mxGeometry width="50" height="50" relative="1" as="geometry">
            <mxPoint x="-30" y="320" as="sourcePoint" />
            <mxPoint x="-30" y="380" as="targetPoint" />
          </mxGeometry>
        </mxCell>
        <mxCell id="0LEx8coa6d5uUNperBAj-63" value="" style="endArrow=none;html=1;rounded=0;entryX=0.5;entryY=1;entryDx=0;entryDy=0;exitX=0.5;exitY=0;exitDx=0;exitDy=0;" edge="1" parent="1" source="0LEx8coa6d5uUNperBAj-2" target="CgMMiQ2hONGqeUQDv3Pb-2">
          <mxGeometry width="50" height="50" relative="1" as="geometry">
            <mxPoint x="370" y="340" as="sourcePoint" />
            <mxPoint x="420" y="290" as="targetPoint" />
          </mxGeometry>
        </mxCell>
        <mxCell id="0LEx8coa6d5uUNperBAj-65" value="" style="ellipse;whiteSpace=wrap;html=1;" vertex="1" parent="1">
          <mxGeometry x="368" y="410" width="90" height="40" as="geometry" />
        </mxCell>
        <mxCell id="0LEx8coa6d5uUNperBAj-66" value="db" style="text;html=1;align=center;verticalAlign=middle;whiteSpace=wrap;rounded=0;" vertex="1" parent="1">
          <mxGeometry x="383" y="416" width="60" height="30" as="geometry" />
        </mxCell>
        <mxCell id="0LEx8coa6d5uUNperBAj-67" value="" style="endArrow=none;html=1;rounded=0;entryX=0.5;entryY=1;entryDx=0;entryDy=0;exitX=0.5;exitY=0;exitDx=0;exitDy=0;" edge="1" parent="1" source="0LEx8coa6d5uUNperBAj-65" target="CgMMiQ2hONGqeUQDv3Pb-1">
          <mxGeometry width="50" height="50" relative="1" as="geometry">
            <mxPoint x="370" y="340" as="sourcePoint" />
            <mxPoint x="420" y="290" as="targetPoint" />
          </mxGeometry>
        </mxCell>
        <mxCell id="0LEx8coa6d5uUNperBAj-68" value="R_T" style="text;html=1;align=center;verticalAlign=middle;whiteSpace=wrap;rounded=0;" vertex="1" parent="1">
          <mxGeometry x="29" y="335" width="60" height="30" as="geometry" />
        </mxCell>
        <mxCell id="0LEx8coa6d5uUNperBAj-69" value="&lt;font style=&quot;font-size: 13px;&quot;&gt;&lt;b&gt;Rendeles&lt;/b&gt;&lt;/font&gt;" style="text;html=1;align=center;verticalAlign=middle;whiteSpace=wrap;rounded=0;" vertex="1" parent="1">
          <mxGeometry x="-120" y="335" width="60" height="30" as="geometry" />
        </mxCell>
        <mxCell id="0LEx8coa6d5uUNperBAj-70" value="" style="ellipse;whiteSpace=wrap;html=1;dashed=1;dashPattern=12 12;" vertex="1" parent="1">
          <mxGeometry x="-135" y="411" width="90" height="40" as="geometry" />
        </mxCell>
        <mxCell id="0LEx8coa6d5uUNperBAj-71" value="ar" style="text;html=1;align=center;verticalAlign=middle;whiteSpace=wrap;rounded=0;" vertex="1" parent="1">
          <mxGeometry x="-120" y="416" width="60" height="30" as="geometry" />
        </mxCell>
        <mxCell id="0LEx8coa6d5uUNperBAj-72" value="" style="ellipse;whiteSpace=wrap;html=1;" vertex="1" parent="1">
          <mxGeometry x="-35" y="411" width="90" height="40" as="geometry" />
        </mxCell>
        <mxCell id="0LEx8coa6d5uUNperBAj-73" value="" style="ellipse;whiteSpace=wrap;html=1;" vertex="1" parent="1">
          <mxGeometry x="-230" y="410" width="90" height="40" as="geometry" />
        </mxCell>
        <mxCell id="0LEx8coa6d5uUNperBAj-74" value="darabszam" style="text;html=1;align=center;verticalAlign=middle;whiteSpace=wrap;rounded=0;" vertex="1" parent="1">
          <mxGeometry x="-20" y="415" width="60" height="30" as="geometry" />
        </mxCell>
        <mxCell id="0LEx8coa6d5uUNperBAj-75" value="datum" style="text;html=1;align=center;verticalAlign=middle;whiteSpace=wrap;rounded=0;" vertex="1" parent="1">
          <mxGeometry x="-215" y="416" width="60" height="30" as="geometry" />
        </mxCell>
        <mxCell id="0LEx8coa6d5uUNperBAj-76" value="" style="ellipse;whiteSpace=wrap;html=1;" vertex="1" parent="1">
          <mxGeometry x="-260" y="330" width="90" height="40" as="geometry" />
        </mxCell>
        <mxCell id="0LEx8coa6d5uUNperBAj-77" value="" style="endArrow=none;html=1;rounded=0;entryX=1;entryY=0.5;entryDx=0;entryDy=0;" edge="1" parent="1" target="0LEx8coa6d5uUNperBAj-76">
          <mxGeometry width="50" height="50" relative="1" as="geometry">
            <mxPoint x="-150" y="350" as="sourcePoint" />
            <mxPoint x="310" y="290" as="targetPoint" />
          </mxGeometry>
        </mxCell>
        <mxCell id="0LEx8coa6d5uUNperBAj-78" value="R_V" style="text;html=1;align=center;verticalAlign=middle;whiteSpace=wrap;rounded=0;" vertex="1" parent="1">
          <mxGeometry x="-120" y="205" width="60" height="30" as="geometry" />
        </mxCell>
        <mxCell id="0LEx8coa6d5uUNperBAj-79" value="&lt;u&gt;Rkod&lt;/u&gt;" style="text;html=1;align=center;verticalAlign=middle;whiteSpace=wrap;rounded=0;" vertex="1" parent="1">
          <mxGeometry x="-245" y="335" width="60" height="30" as="geometry" />
        </mxCell>
        <mxCell id="0LEx8coa6d5uUNperBAj-80" value="&lt;b&gt;&lt;font style=&quot;font-size: 13px;&quot;&gt;Vevő&lt;/font&gt;&lt;/b&gt;" style="text;html=1;align=center;verticalAlign=middle;whiteSpace=wrap;rounded=0;" vertex="1" parent="1">
          <mxGeometry x="-120" y="85" width="60" height="30" as="geometry" />
        </mxCell>
        <mxCell id="0LEx8coa6d5uUNperBAj-81" value="" style="ellipse;whiteSpace=wrap;html=1;" vertex="1" parent="1">
          <mxGeometry x="-135" y="-90" width="90" height="40" as="geometry" />
        </mxCell>
        <mxCell id="0LEx8coa6d5uUNperBAj-82" value="" style="ellipse;whiteSpace=wrap;html=1;" vertex="1" parent="1">
          <mxGeometry x="-135" y="-10" width="90" height="40" as="geometry" />
        </mxCell>
        <mxCell id="0LEx8coa6d5uUNperBAj-83" value="" style="ellipse;whiteSpace=wrap;html=1;" vertex="1" parent="1">
          <mxGeometry x="-260" y="80" width="90" height="40" as="geometry" />
        </mxCell>
        <mxCell id="0LEx8coa6d5uUNperBAj-84" value="" style="ellipse;whiteSpace=wrap;html=1;" vertex="1" parent="1">
          <mxGeometry x="-235" y="-90" width="90" height="40" as="geometry" />
        </mxCell>
        <mxCell id="0LEx8coa6d5uUNperBAj-85" value="" style="ellipse;whiteSpace=wrap;html=1;" vertex="1" parent="1">
          <mxGeometry x="-35" y="-90" width="90" height="40" as="geometry" />
        </mxCell>
        <mxCell id="0LEx8coa6d5uUNperBAj-86" value="&lt;u&gt;vkod&lt;/u&gt;" style="text;html=1;align=center;verticalAlign=middle;whiteSpace=wrap;rounded=0;" vertex="1" parent="1">
          <mxGeometry x="-245" y="85" width="60" height="30" as="geometry" />
        </mxCell>
        <mxCell id="0LEx8coa6d5uUNperBAj-87" value="lakcim" style="text;html=1;align=center;verticalAlign=middle;whiteSpace=wrap;rounded=0;" vertex="1" parent="1">
          <mxGeometry x="-120" y="-5" width="60" height="30" as="geometry" />
        </mxCell>
        <mxCell id="0LEx8coa6d5uUNperBAj-88" value="varos" style="text;html=1;align=center;verticalAlign=middle;whiteSpace=wrap;rounded=0;" vertex="1" parent="1">
          <mxGeometry x="-220" y="-85" width="60" height="30" as="geometry" />
        </mxCell>
        <mxCell id="0LEx8coa6d5uUNperBAj-89" value="irsz" style="text;html=1;align=center;verticalAlign=middle;whiteSpace=wrap;rounded=0;" vertex="1" parent="1">
          <mxGeometry x="-120" y="-85" width="60" height="30" as="geometry" />
        </mxCell>
        <mxCell id="0LEx8coa6d5uUNperBAj-90" value="Text" style="text;html=1;align=center;verticalAlign=middle;whiteSpace=wrap;rounded=0;" vertex="1" parent="1">
          <mxGeometry x="-335" y="-55" width="60" height="30" as="geometry" />
        </mxCell>
        <mxCell id="0LEx8coa6d5uUNperBAj-91" value="" style="ellipse;whiteSpace=wrap;html=1;" vertex="1" parent="1">
          <mxGeometry x="-350" y="-60" width="90" height="40" as="geometry" />
        </mxCell>
        <mxCell id="0LEx8coa6d5uUNperBAj-92" value="utca" style="text;html=1;align=center;verticalAlign=middle;whiteSpace=wrap;rounded=0;" vertex="1" parent="1">
          <mxGeometry x="-20" y="-85" width="60" height="30" as="geometry" />
        </mxCell>
        <mxCell id="0LEx8coa6d5uUNperBAj-93" value="" style="endArrow=none;html=1;rounded=0;entryX=0.5;entryY=1;entryDx=0;entryDy=0;" edge="1" parent="1" target="0LEx8coa6d5uUNperBAj-53">
          <mxGeometry width="50" height="50" relative="1" as="geometry">
            <mxPoint x="-90" y="410" as="sourcePoint" />
            <mxPoint x="-30" y="140" as="targetPoint" />
          </mxGeometry>
        </mxCell>
        <mxCell id="0LEx8coa6d5uUNperBAj-94" value="" style="endArrow=none;html=1;rounded=0;entryX=0.5;entryY=0;entryDx=0;entryDy=0;exitX=0.5;exitY=1;exitDx=0;exitDy=0;" edge="1" parent="1" source="0LEx8coa6d5uUNperBAj-53" target="0LEx8coa6d5uUNperBAj-73">
          <mxGeometry width="50" height="50" relative="1" as="geometry">
            <mxPoint x="-80" y="350" as="sourcePoint" />
            <mxPoint x="-30" y="300" as="targetPoint" />
          </mxGeometry>
        </mxCell>
        <mxCell id="0LEx8coa6d5uUNperBAj-95" value="" style="endArrow=none;html=1;rounded=0;exitX=0.5;exitY=1;exitDx=0;exitDy=0;" edge="1" parent="1" source="0LEx8coa6d5uUNperBAj-53">
          <mxGeometry width="50" height="50" relative="1" as="geometry">
            <mxPoint x="-80" y="350" as="sourcePoint" />
            <mxPoint x="10" y="410" as="targetPoint" />
          </mxGeometry>
        </mxCell>
        <mxCell id="0LEx8coa6d5uUNperBAj-96" value="" style="endArrow=none;html=1;rounded=0;entryX=0;entryY=0.5;entryDx=0;entryDy=0;exitX=1;exitY=0.5;exitDx=0;exitDy=0;" edge="1" parent="1" source="0LEx8coa6d5uUNperBAj-83" target="0LEx8coa6d5uUNperBAj-54">
          <mxGeometry width="50" height="50" relative="1" as="geometry">
            <mxPoint x="-80" y="290" as="sourcePoint" />
            <mxPoint x="-30" y="240" as="targetPoint" />
          </mxGeometry>
        </mxCell>
        <mxCell id="0LEx8coa6d5uUNperBAj-97" value="" style="endArrow=none;html=1;rounded=0;entryX=0.5;entryY=0;entryDx=0;entryDy=0;exitX=0.5;exitY=1;exitDx=0;exitDy=0;" edge="1" parent="1" source="0LEx8coa6d5uUNperBAj-82" target="0LEx8coa6d5uUNperBAj-54">
          <mxGeometry width="50" height="50" relative="1" as="geometry">
            <mxPoint x="-80" y="210" as="sourcePoint" />
            <mxPoint x="-30" y="160" as="targetPoint" />
          </mxGeometry>
        </mxCell>
        <mxCell id="0LEx8coa6d5uUNperBAj-98" value="" style="endArrow=none;html=1;rounded=0;entryX=0.5;entryY=0;entryDx=0;entryDy=0;exitX=0.5;exitY=1;exitDx=0;exitDy=0;" edge="1" parent="1" source="0LEx8coa6d5uUNperBAj-81" target="0LEx8coa6d5uUNperBAj-82">
          <mxGeometry width="50" height="50" relative="1" as="geometry">
            <mxPoint x="-80" y="210" as="sourcePoint" />
            <mxPoint x="-30" y="160" as="targetPoint" />
          </mxGeometry>
        </mxCell>
        <mxCell id="0LEx8coa6d5uUNperBAj-99" value="" style="endArrow=none;html=1;rounded=0;" edge="1" parent="1">
          <mxGeometry width="50" height="50" relative="1" as="geometry">
            <mxPoint x="-80" y="210" as="sourcePoint" />
            <mxPoint x="-80" y="210" as="targetPoint" />
          </mxGeometry>
        </mxCell>
        <mxCell id="0LEx8coa6d5uUNperBAj-100" value="" style="endArrow=none;html=1;rounded=0;entryX=0.5;entryY=0;entryDx=0;entryDy=0;exitX=0.5;exitY=1;exitDx=0;exitDy=0;" edge="1" parent="1" source="0LEx8coa6d5uUNperBAj-91" target="0LEx8coa6d5uUNperBAj-54">
          <mxGeometry width="50" height="50" relative="1" as="geometry">
            <mxPoint x="-80" y="210" as="sourcePoint" />
            <mxPoint x="-30" y="160" as="targetPoint" />
          </mxGeometry>
        </mxCell>
        <mxCell id="0LEx8coa6d5uUNperBAj-101" value="" style="endArrow=none;html=1;rounded=0;exitX=0.5;exitY=1;exitDx=0;exitDy=0;" edge="1" parent="1" source="0LEx8coa6d5uUNperBAj-84">
          <mxGeometry width="50" height="50" relative="1" as="geometry">
            <mxPoint x="-80" y="210" as="sourcePoint" />
            <mxPoint x="-90" y="-10" as="targetPoint" />
          </mxGeometry>
        </mxCell>
        <mxCell id="0LEx8coa6d5uUNperBAj-102" value="" style="endArrow=none;html=1;rounded=0;entryX=0.5;entryY=1;entryDx=0;entryDy=0;" edge="1" parent="1" target="0LEx8coa6d5uUNperBAj-85">
          <mxGeometry width="50" height="50" relative="1" as="geometry">
            <mxPoint x="-90" y="-10" as="sourcePoint" />
            <mxPoint x="-30" y="160" as="targetPoint" />
          </mxGeometry>
        </mxCell>
        <mxCell id="DqAT9mWjPJHjH-1HqMG4-1" value="Nev" style="text;html=1;align=center;verticalAlign=middle;whiteSpace=wrap;rounded=0;" vertex="1" parent="1">
          <mxGeometry x="-335" y="-55" width="60" height="30" as="geometry" />
        </mxCell>
      </root>
    </mxGraphModel>
  </diagram>
</mxfile>
